<svg id="white" xmlns="http://www.w3.org/2000/svg" viewBox="0 0 700 700"><defs><style>.cls-1{opacity:0.7;}.cls-2{opacity:0.35;}.cls-3{fill:#fff;}</style></defs><title>white-background</title><g id="background" class="cls-1"><g class="cls-2"><path class="cls-3" d="M222.43,298.19a138.38,138.38,0,0,1,17.68-31.43l-2.48-2.27a140.9,140.9,0,0,0-18.41,32.71Z"/><path class="cls-3" d="M456.24,438.35l2.87,1.8q1.2-1.44,2.37-2.91l-2.73-1.94C457.93,436.33,457.09,437.34,456.24,438.35Z"/><path class="cls-3" d="M432.32,234.06l-2.2,2.55c1.47,1,2.92,2.1,4.35,3.2l2.27-2.48C435.29,236.21,433.81,235.12,432.32,234.06Z"/><path class="cls-3" d="M290.62,473.8l-2.36,2.58q5.52,2.72,11.3,5l1.37-3.07Q295.67,476.25,290.62,473.8Z"/><path class="cls-3" d="M477.77,403.29a138,138,0,0,1-13.37,24.36l2.72,2a140.78,140.78,0,0,0,13.48-24.39Z"/><path class="cls-3" d="M364.29,208.73l-.11,3.36,2,.19.45-3.32Z"/><path class="cls-3" d="M373.07,209.84l-.28,3.35c2.22.36,4.41.77,6.59,1.23l1.17-3.17Q376.83,210.44,373.07,209.84Z"/><path class="cls-3" d="M384,483.45a139,139,0,0,1-64.68.48L318,487.08a142.49,142.49,0,0,0,67-.45Z"/><path class="cls-3" d="M439.29,243.67a138.34,138.34,0,0,1,36.16,46.76l3.07-1.34a141.73,141.73,0,0,0-37-47.9Z"/><path class="cls-3" d="M285.65,227.64a137.65,137.65,0,0,1,59-16.09l1.34,0-.15-3.34-1.34,0a140.78,140.78,0,0,0-60.26,16.38Z"/><path class="cls-3" d="M397.7,482.82l-1.54-3c-2.8,1-5.64,1.88-8.52,2.68l.84,3.24C391.6,484.87,394.67,483.89,397.7,482.82Z"/><path class="cls-3" d="M213.07,337.78a137.51,137.51,0,0,1,6.15-30.68l-3.29-.73a140.86,140.86,0,0,0-6.21,31.25Z"/><path class="cls-3" d="M477.29,294.5c1.08,2.48,2.09,5,3,7.57l3.14-1.18c-1-2.66-2-5.29-3.16-7.88Z"/><path class="cls-3" d="M212.83,341.16c0-.65.09-1.3.14-2l-3.34-.22c0,.68-.11,1.36-.15,2.05Z"/></g></g></svg>