<svg id="green" xmlns="http://www.w3.org/2000/svg" viewBox="0 0 700 700"><defs><style>.cls-1{opacity:0.26;}.cls-2{fill:#2add72;}</style></defs><title>green-background</title><g id="background" class="cls-1"><path class="cls-2" d="M375.7,205.38h0a146.9,146.9,0,0,1,29.75,8.67l2.62-6.78a154.2,154.2,0,0,0-30.63-9Z"/><path class="cls-2" d="M219.52,281.93a146.33,146.33,0,0,1,25.34-34.85L239,242.67a153.5,153.5,0,0,0-26,36Z"/><path class="cls-2" d="M418.6,212.05c-1.53-.76-3.07-1.51-4.62-2.22l-3.3,6.48c1.48.67,2.94,1.38,4.4,2.1Z"/><path class="cls-2" d="M482,428.49l-6.13-3.91-.83,1.39,6.15,3.87C481.5,429.39,481.76,428.94,482,428.49Z"/><path class="cls-2" d="M499,311.92l-6.82,2.71c.32,1.3.62,2.6.91,3.92l6.82-2.82C499.57,314.46,499.27,313.18,499,311.92Z"/><path class="cls-2" d="M218.59,283.75,212,280.62c-.92,1.85-1.82,3.71-2.68,5.6l6.57,3.12Q217.2,286.51,218.59,283.75Z"/><path class="cls-2" d="M438.54,233a147.33,147.33,0,0,1,53.18,80l6.81-2.64a154.64,154.64,0,0,0-55.81-83.27Z"/><path class="cls-2" d="M488.37,397.63l6.65,3c.76-2.19,1.47-4.39,2.14-6.62l-6.77-2.71Q489.45,394.49,488.37,397.63Z"/><path class="cls-2" d="M357.16,496.32q-5.6.29-11.28.13l-.05,7.27q6.17.15,12.24-.17Z"/><path class="cls-2" d="M439.85,224.94c-.68-.5-1.37-1-2.05-1.46l-4.11,6c.66.46,1.32.92,2,1.4Z"/><path class="cls-2" d="M380.73,493.19c-1.07.23-2.15.45-3.23.66l1,7.2q1.77-.33,3.54-.72Z"/><path class="cls-2" d="M474.11,427.52a147.23,147.23,0,0,1-89.21,64.7l1.4,7.14a154.5,154.5,0,0,0,94.08-68.17Z"/><path class="cls-2" d="M320,493.45c-1.06-.22-2.12-.44-3.17-.68l-1.37,7.13q1.72.39,3.45.75Z"/><path class="cls-2" d="M253.33,460.46c-.57-.49-1.13-1-1.69-1.5l-4.38,5.83,1.74,1.53Z"/><path class="cls-2" d="M212.3,401.4c-.74-2-1.45-4-2.1-6l-6.91,2.24q1,3.07,2.14,6.08Z"/><path class="cls-2" d="M313.36,491.94a145.69,145.69,0,0,1-53.18-25.87l-4.06,6a152.87,152.87,0,0,0,55.76,26.94Z"/></g></svg>