<svg id="yellow" xmlns="http://www.w3.org/2000/svg" viewBox="0 0 700 700"><defs><style>.cls-1{fill:#f9ad15;}</style></defs><title>rotator</title><g id="foreground"><g id="image"><path class="cls-1" d="M340,194.74a157,157,0,0,1,16.93-.15l1-13.45a169,169,0,0,0-19.47.19Z"/><path class="cls-1" d="M481,266.34l11.46-7.14c-1.05-1.64-2.13-3.25-3.23-4.85l-10.8,8.09C479.25,263.73,480.11,265,481,266.34Z"/><path class="cls-1" d="M500.1,272.59l-11.92,6.32a154.81,154.81,0,0,1,14.53,42.63L516.14,320A168.28,168.28,0,0,0,500.1,272.59Z"/><path class="cls-1" d="M504.18,369.29q-.78,6.3-2.06,12.44l13.14,3.11q1.37-6.51,2.22-13.17Z"/><path class="cls-1" d="M504.66,335.49a155.38,155.38,0,0,1-.18,31.19l13.34,2.2a168.92,168.92,0,0,0,.44-32.7Z"/><path class="cls-1" d="M284.83,491.43l-5.46,12.33c.83.39,1.66.78,2.5,1.15l5.51-12.32C286.52,492.21,285.68,491.82,284.83,491.43Z"/><path class="cls-1" d="M231.59,229.12q-5,4.9-9.63,10.21l10,9.06q4.32-5,9.06-9.64Z"/><path class="cls-1" d="M330.4,182.06a168.36,168.36,0,0,0-95.75,44.13l9.19,9.87a154.92,154.92,0,0,1,88.1-40.6l1.79-.18-1.54-13.4Z"/><path class="cls-1" d="M214.18,426.42l-11.41,7.21a169.74,169.74,0,0,0,70.68,67.29l5.75-12.22A156.14,156.14,0,0,1,214.18,426.42Z"/><path class="cls-1" d="M360,505.28a155.08,155.08,0,0,1-37.05-2L320,516.48a168.68,168.68,0,0,0,40.38,2.29Z"/><path class="cls-1" d="M364.66,504.9l1,13.46,2.92-.3-1.11-13.45C366.5,504.72,365.58,504.82,364.66,504.9Z"/><path class="cls-1" d="M384.56,515.48a168.9,168.9,0,0,0,17.85-4.74l-5.15-12.53a154.31,154.31,0,0,1-15.45,4.07Z"/><path class="cls-1" d="M374.85,182.81c-4.71-.71-9.46-1.24-14.27-1.54l-1,13.46c4.61.28,9.18.8,13.69,1.48Z"/></g></g></svg>