<svg id="red" xmlns="http://www.w3.org/2000/svg" viewBox="0 0 700 700"><defs><style>.cls-1{opacity:0.54;}.cls-2{opacity:0.35;}.cls-3{fill:#e83131;}</style></defs><title>rotator</title><g id="background" class="cls-1"><g class="cls-2"><path class="cls-3" d="M355.61,524.63a173.22,173.22,0,0,1-44.91-4.54l-1.37,4a177.26,177.26,0,0,0,46.75,4.73Z"/><path class="cls-3" d="M399.26,186.18l.63-4.2q-2.25-.66-4.53-1.26l-.86,4.11C396.09,185.25,397.68,185.71,399.26,186.18Z"/><path class="cls-3" d="M176.88,316l4,1.24q.68-3.32,1.49-6.59l-4-1.37Q177.59,312.61,176.88,316Z"/><path class="cls-3" d="M522.91,358.41l4.14,1.42c.24-5.13.24-10.29,0-15.45l-4.2,0C523.08,349,523.09,353.74,522.91,358.41Z"/><path class="cls-3" d="M348.25,179a172.09,172.09,0,0,1,34.64,3.14l.88-4.11A177.56,177.56,0,0,0,349,174.83Z"/><path class="cls-3" d="M181.9,406.71l3.91-1.56c-.26-.78-.51-1.57-.76-2.36l-4,1.15C181.3,404.86,181.6,405.78,181.9,406.71Z"/><path class="cls-3" d="M178.78,396.08l4-1.36q-1-4.08-1.89-8.17l-4.22.25C177.27,389.9,178,393,178.78,396.08Z"/><path class="cls-3" d="M487.21,246.51a174,174,0,0,1,33,73.95l4.24-.16a178.39,178.39,0,0,0-34.09-76.64Z"/><path class="cls-3" d="M184.41,303.16a173.11,173.11,0,0,1,35.53-64.9l-3.08-2.86a177.34,177.34,0,0,0-36.42,66.4Z"/><path class="cls-3" d="M243,487.45a172.08,172.08,0,0,1-48-59.64c-.24-.5-.47-1-.72-1.51l-3.76,1.84c.24.51.47,1,.72,1.52a176.21,176.21,0,0,0,49,60.92Z"/><path class="cls-3" d="M479.61,231.05l-2.68,3.28q3.78,4.08,7.33,8.44l3.3-2.6C485,237,482.35,234,479.61,231.05Z"/><path class="cls-3" d="M405.72,515.53a172.06,172.06,0,0,1-38.28,8.32l.82,4.14a176.09,176.09,0,0,0,39-8.54Z"/><path class="cls-3" d="M223.69,234.11q3.47-3.74,7.16-7.27l-2.92-3q-3.85,3.69-7.46,7.57Z"/><path class="cls-3" d="M409.72,514.11l-2.31.82,1.42,4,2.43-.87Z"/></g></g></svg>