<svg id="outter_ring" data-name="outter ring" xmlns="http://www.w3.org/2000/svg" viewBox="0 0 700 700"><defs><style>.cls-1{opacity:0.25;}.cls-2{opacity:0.7;}.cls-3{opacity:0.26;}.cls-4{fill:#fff;}</style></defs><title>2. inner-ring</title><g id="white_copy" data-name="white copy" class="cls-1"><g id="background_copy_2" data-name="background copy 2" class="cls-2"><g class="cls-3"><path class="cls-4" d="M80.67,417a278.31,278.31,0,0,1-9.06-72.05l-6.75-.71a284.94,284.94,0,0,0,9.42,75Z"/><path class="cls-4" d="M627.08,363.6l6.8-.51q.23-3.78.35-7.56l-6.75.13C627.39,358.31,627.25,361,627.08,363.6Z"/><path class="cls-4" d="M619.92,281.05a278.3,278.3,0,0,1,7.54,55.45l6.75-.09a284.54,284.54,0,0,0-7.41-55.64Z"/><path class="cls-4" d="M203.05,102.16l3.84,5.56c1.14-.68,2.28-1.37,3.43-2l-3.25-5.91Q205.06,100.94,203.05,102.16Z"/><path class="cls-4" d="M218.58,93.43l3.58,5.76q6-3.1,12.12-5.9l-1.91-6.54Q225.43,89.9,218.58,93.43Z"/><path class="cls-4" d="M585.64,505.75l-6.11-3q-5,7.41-10.59,14.55l5.25,4.24C578.21,516.37,582,511.11,585.64,505.75Z"/></g></g><g id="foreground_copy_6" data-name="foreground copy 6"><g class="cls-3"><path class="cls-4" d="M579.16,177.81l-5.25,4.25c.8,1.09,1.58,2.19,2.37,3.29l5.25-4.25C580.75,180,580,178.9,579.16,177.81Z"/><path class="cls-4" d="M627,326.9A279.54,279.54,0,0,1,622.4,400l6.64,1.22a286.31,286.31,0,0,0,4.68-74.33Z"/></g></g></g></svg>