<svg id="white" xmlns="http://www.w3.org/2000/svg" viewBox="0 0 700 700"><defs><style>.cls-1{fill:#fff;}</style></defs><title>white-foreground_official</title><g id="foreground"><path class="cls-1" d="M344.66,211.55l1.34,0h0l-.15-3.33-1.34,0a143,143,0,0,0-20.44,2.37l1,3.22A140,140,0,0,1,344.66,211.55Z"/><path class="cls-1" d="M473.08,278.73l-3,1.51c.77,1.32,1.52,2.64,2.24,4l3.08-1.34C474.65,281.49,473.88,280.11,473.08,278.73Z"/><path class="cls-1" d="M346.52,208.15l.15,3.34,2.33-.05h0l-.24-3.34Q347.65,208.11,346.52,208.15Z"/><path class="cls-1" d="M356.6,487.38a140.52,140.52,0,0,1-22.07-.8l-.44,3.32A142.17,142.17,0,0,0,409,478.3l-1.52-3A137.87,137.87,0,0,1,356.6,487.38Z"/><path class="cls-1" d="M492,350.05l-3.35.14c0,.68,0,1.35,0,2l3.35-.15C492,351.39,492,350.72,492,350.05Z"/><path class="cls-1" d="M276.07,233.28l-1.73-2.88a142.37,142.37,0,0,0-18.58,14.23L258.1,247A138.19,138.19,0,0,1,276.07,233.28Z"/><path class="cls-1" d="M229.31,415.36c-.52-.94-1-1.89-1.51-2.85l-3.15,1.21c.5,1,1,1.95,1.53,2.91Z"/><path class="cls-1" d="M467,423.67a138.86,138.86,0,0,1-23.41,27.8l2.29,2.45a142.17,142.17,0,0,0,23.83-28.28Z"/><path class="cls-1" d="M473.73,286.94a137.4,137.4,0,0,1,14.81,56.55c.09,2,.12,4,.13,6l3.34-.14c0-2,0-4-.12-6a140.87,140.87,0,0,0-15-57.68Z"/><path class="cls-1" d="M281.89,469.38l.07-.15h0a138.61,138.61,0,0,1-51.37-51.54l-3.07,1.38a142.07,142.07,0,0,0,52.72,53Z"/><path class="cls-1" d="M332.12,486.28q-6.47-.87-12.74-2.33l-.72,3.27q6.45,1.5,13.1,2.39Z"/><path class="cls-1" d="M219.08,391.36v0l-3.31.61q1.29,4.11,2.82,8.1l3.19-1Q220.32,395.28,219.08,391.36Z"/><path class="cls-1" d="M256,248.94l-2.33-2.41c-1,.92-1.94,1.86-2.89,2.81l2.33,2.41C254.09,250.8,255.05,249.86,256,248.94Z"/></g></svg>