<svg id="blue" xmlns="http://www.w3.org/2000/svg" viewBox="0 0 700 700"><defs><style>.cls-1{opacity:0.31;}.cls-2{fill:#2facea;}</style></defs><title>rotator</title><g id="background" class="cls-1"><g id="foreground_copy_2" data-name="foreground copy 2"><path class="cls-2" d="M228.41,521.76a207.29,207.29,0,0,1-39.26-37.22l-4.22,2.78a212.19,212.19,0,0,0,40.86,38.74Z"/><path class="cls-2" d="M517.82,232.85l3.67-3.51q-1.65-2.28-3.36-4.52l-3.83,3.27Q516.1,230.45,517.82,232.85Z"/><path class="cls-2" d="M211.86,193l2.91,4.13c2-1.76,4.13-3.49,6.24-5.16l-2.77-4.22Q215,190.27,211.86,193Z"/><path class="cls-2" d="M508.84,486.77l2.88,4.38q6-7,11.35-14.63l-4-3.12Q514.24,480.32,508.84,486.77Z"/><path class="cls-2" d="M474.69,188.7a207.09,207.09,0,0,1,30.55,28.36l3.84-3.24a212.09,212.09,0,0,0-30.56-28.54Z"/><path class="cls-2" d="M150.13,282.65,155,284c.34-.93.67-1.87,1-2.79l-4.67-1.88C150.91,280.46,150.52,281.55,150.13,282.65Z"/><path class="cls-2" d="M155,270.29l4.78,1.62q2-4.62,4.19-9.13l-4.18-2.86Q157.22,265,155,270.29Z"/><path class="cls-2" d="M557,354.51a208.61,208.61,0,0,1-23,94.26l4.14,3A213.62,213.62,0,0,0,562,354.09Z"/><path class="cls-2" d="M228.39,186.31a207.73,207.73,0,0,1,81.25-35.5l-.82-5a212.58,212.58,0,0,0-83.2,36.26Z"/><path class="cls-2" d="M148.89,404a206.32,206.32,0,0,1-1.83-91.74c.14-.66.29-1.31.43-2l-4.92-1c-.14.66-.3,1.31-.43,2a211.24,211.24,0,0,0,1.8,93.67Z"/><path class="cls-2" d="M561.12,334.28l-5,1.14c.4,4.44.67,8.89.78,13.38l5,0C561.86,343.9,561.56,339.08,561.12,334.28Z"/><path class="cls-2" d="M282.58,549.85a205.71,205.71,0,0,1-42.39-20.17l-2.26,4.52a210.69,210.69,0,0,0,43.2,20.46Z"/><path class="cls-2" d="M316.24,149.63q6-1,12.11-1.64l-.56-5q-6.35.66-12.62,1.7Z"/><path class="cls-2" d="M287.42,551.44l-2.79-.92-1.55,4.78c1,.33,1.95.66,2.94,1Z"/></g></g></svg>