<svg id="green" xmlns="http://www.w3.org/2000/svg" viewBox="0 0 700 700"><defs><style>.cls-1{fill:#2add72;}</style></defs><title>green-foreground</title><g id="foreground"><g id="foreground_copy_3" data-name="foreground copy 3"><path class="cls-1" d="M312.69,207.75l-2.1-7-1.74.47,2,7C311.5,208.07,312.09,207.9,312.69,207.75Z"/><path class="cls-1" d="M300,487.86h0q-3-1.1-6-2.31l-2.66,6.76q3,1.2,6,2.3Z"/><path class="cls-1" d="M312.79,491.79c-.57-.14-1.13-.3-1.69-.45l-2,7c.61.17,1.21.34,1.82.49Z"/><path class="cls-1" d="M396.4,203c-1.63-.52-3.28-1-4.94-1.48l-2.15,6.94q2.47.69,4.9,1.47Z"/><path class="cls-1" d="M251.79,230.89l3.91,6.2c.78-.66,1.58-1.3,2.37-1.94l-4-6.06C253.28,229.68,252.53,230.28,251.79,230.89Z"/><path class="cls-1" d="M203.14,358l-7.22.93q.2,3.42.54,6.8l7.15-1.51h0C203.41,362.16,203.25,360.08,203.14,358Z"/><path class="cls-1" d="M246.1,453.71c-.72-.72-1.44-1.45-2.15-2.19L239.19,457c.73.76,1.47,1.5,2.21,2.24Z"/><path class="cls-1" d="M286.61,482.29a146.32,146.32,0,0,1-39-27.05l-4.41,5.82a153.16,153.16,0,0,0,40.16,27.74Z"/><path class="cls-1" d="M501.58,324.53l-7.11,1.53c.11.64.21,1.29.31,1.94l7.16-1.25Q501.78,325.64,501.58,324.53Z"/><path class="cls-1" d="M502.83,365.48l-7.19-1.08c-.24,2.39-.54,4.8-.9,7.21-.29,1.92-.63,3.83-1,5.72l7.19,1.08c.35-1.89.69-3.8,1-5.72Q502.46,369.07,502.83,365.48Z"/><path class="cls-1" d="M259.68,233.87a147.15,147.15,0,0,1,49.66-25.21l-1.83-7a154.2,154.2,0,0,0-51.86,26.19Z"/><path class="cls-1" d="M382.86,492.72a146.44,146.44,0,0,1-55,2.14q-6.94-1-13.62-2.72l-1.67,7.07q7,1.73,14.2,2.83A153.7,153.7,0,0,0,384,499.92Z"/><path class="cls-1" d="M393.66,497.36l-1.7-7.08c-2,.61-4.06,1.19-6.11,1.71l1.37,7.14C389.39,498.59,391.53,498,393.66,497.36Z"/><path class="cls-1" d="M495.1,330.28a146.09,146.09,0,0,1,1.13,26.11l.22,0,7,.42A152.89,152.89,0,0,0,502.26,329Z"/><path class="cls-1" d="M458.54,240.89a153.15,153.15,0,0,0-59.42-37l-2,7a146,146,0,0,1,56.29,35.14Z"/><path class="cls-1" d="M480,282.38l6.44-3.35q-2.44-4.72-5.2-9.26l-6.2,3.78Q477.65,277.87,480,282.38Z"/><path class="cls-1" d="M455,247.62c.55.57,1.11,1.14,1.65,1.72l5.21-5.06c-.61-.65-1.23-1.29-1.85-1.93Z"/></g></g></svg>