<svg id="yellow" xmlns="http://www.w3.org/2000/svg" viewBox="0 0 700 700"><defs><style>.cls-1{opacity:0.48;}.cls-2{opacity:0.61;}.cls-3{fill:#f9ad15;}</style></defs><title>rotator</title><g id="background" class="cls-1"><g id="official"><g class="cls-2"><path class="cls-3" d="M339.81,518.77l1.52-13.42a156.35,156.35,0,0,1-27.64-4l-5,12.68A169.55,169.55,0,0,0,339.81,518.77Z"/></g><g class="cls-2"><path class="cls-3" d="M496.19,264.87a169,169,0,0,0-22.28-30l-9.28,9.81a156.42,156.42,0,0,1,19.89,26.93Z"/></g><g class="cls-2"><path class="cls-3" d="M291.42,205.86a155.31,155.31,0,0,1,54.38-11.39c1.91-.05,3.8-.06,5.69,0h0l.05-13.48c-2,0-4.06,0-6.11.05a168.71,168.71,0,0,0-60.8,13.07Z"/></g><g class="cls-2"><path class="cls-3" d="M215.78,428.6,204.47,436a170.36,170.36,0,0,0,17.07,23.88l9.49-9.68A155.66,155.66,0,0,1,215.78,428.6Z"/></g><g class="cls-2"><path class="cls-3" d="M371.91,504.06q-4.68.66-9.45,1l.14,13.51c3.18-.23,6.32-.57,9.45-1Z"/></g><g class="cls-2"><path class="cls-3" d="M455.31,464.58l7.95,11A168.71,168.71,0,0,0,519.1,345.36c0-.69-.06-1.38-.09-2.07l-13.49.13c0,.77.07,1.54.09,2.31A155.19,155.19,0,0,1,455.31,464.58Z"/></g><g class="cls-2"><path class="cls-3" d="M518.88,340.46c-.06-.9-.11-1.8-.17-2.7l-13.42,1.6c0,.67.09,1.35.13,2Z"/></g><g class="cls-2"><path class="cls-3" d="M451.11,468.32c-1.2,1-2.42,2-3.65,3l7.16,11.55c1.3-1,2.58-2.07,3.85-3.13Z"/></g><g class="cls-2"><path class="cls-3" d="M264.79,496q1.13.67,2.28,1.32L274.38,486c-.9-.5-1.8-1-2.69-1.53Z"/></g><g class="cls-2"><path class="cls-3" d="M268.29,482.37a156.57,156.57,0,0,1-34.91-29.46l-9.46,9.65a169.94,169.94,0,0,0,36,30.49Z"/></g><g class="cls-2"><path class="cls-3" d="M195.76,330.09c.18-1.42.38-2.85.6-4.26L183,323.69c-.23,1.46-.43,2.92-.62,4.39Z"/></g><g class="cls-2"><path class="cls-3" d="M196.1,372.29,182.72,374c.14,1,.26,1.94.41,2.9l13.38-1.84C196.36,374.14,196.24,373.22,196.1,372.29Z"/></g><g class="cls-2"><path class="cls-3" d="M195.93,371.08a156,156,0,0,1-.47-38.53l-13.33-2.13a170.53,170.53,0,0,0-1.07,24.23,173,173,0,0,0,1.43,17.78Z"/></g><g class="cls-2"><path class="cls-3" d="M227.19,236.59l10.23,6.13A156,156,0,0,1,280.19,211l-4-12.21-.39-.68a169.29,169.29,0,0,0-50,37.31Z"/></g><g class="cls-2"><path class="cls-3" d="M427.5,215a157,157,0,0,1,20.93,14.41l9.29-9.82a169.18,169.18,0,0,0-23.79-16.45Z"/></g><g class="cls-2"><path class="cls-3" d="M386.52,198.72h0l3.79-13a168.94,168.94,0,0,0-33.72-4.69l-1.07,12.3,0,1.16a155,155,0,0,1,31,4.2Z"/></g></g></g></svg>