<svg id="red" xmlns="http://www.w3.org/2000/svg" viewBox="0 0 700 700"><defs><style>.cls-1{fill:#e83131;}</style></defs><title>rotator</title><g id="foreground"><path class="cls-1" d="M195,427.81l-.72-1.52v0l-3.75,1.83c.24.51.47,1,.72,1.52a178.05,178.05,0,0,0,13,22.26l3.2-2.76A174.42,174.42,0,0,1,195,427.81Z"/><path class="cls-1" d="M207.71,246.83l3.23,2.69c1.13-1.54,2.27-3.07,3.46-4.57l-3.09-2.87C210.08,243.64,208.88,245.23,207.71,246.83Z"/><path class="cls-1" d="M190.14,427.38l3.77-1.84c-.42-.88-.83-1.77-1.23-2.65h0L189,424.84C189.34,425.69,189.74,426.54,190.14,427.38Z"/><path class="cls-1" d="M505.42,275.91a173.32,173.32,0,0,1,10.14,25.72l4-1.15a178.46,178.46,0,0,0-10.41-26.41,176.58,176.58,0,0,0-40.41-53.67l-2.68,3.24A172.28,172.28,0,0,1,505.42,275.91Z"/><path class="cls-1" d="M280,189.37l1.85,3.77,2.32-1-1.84-3.78Z"/><path class="cls-1" d="M254.27,495.62,251.84,499a177.62,177.62,0,0,0,25.63,14.19l1.57-3.89A174.11,174.11,0,0,1,254.27,495.62Z"/><path class="cls-1" d="M486.58,458c-.82,1.06-1.66,2.11-2.51,3.16l3,3c.87-1.06,1.73-2.14,2.58-3.22Z"/><path class="cls-1" d="M377,181.14a173.85,173.85,0,0,1,43.62,12.92l1.67-3.85A178.29,178.29,0,0,0,377.91,177Z"/><path class="cls-1" d="M216.79,242a172.22,172.22,0,0,1,57.46-45.33c2.28-1.11,4.56-2.15,6.86-3.16l-1.84-3.77c-2.3,1-4.59,2-6.86,3.17A176.28,176.28,0,0,0,213.78,239Z"/><path class="cls-1" d="M522.21,370.64H522a173.65,173.65,0,0,1-33.4,84.75l3.13,2.82a177.74,177.74,0,0,0,34.43-87.05Z"/><path class="cls-1" d="M516.43,304.55q2.25,7.84,3.71,15.79l4.12-.82q-1.51-8.14-3.82-16.22Z"/><path class="cls-1" d="M464.18,481.79h0l2.36,3.49q4.05-3.54,7.87-7.29l-2.77-3.15Q468,478.41,464.18,481.79Z"/><path class="cls-1" d="M282.27,510.76l-1.59,3.88c1.55.66,3.11,1.29,4.67,1.91l1.6-3.88C285.38,512.05,283.82,511.42,282.27,510.76Z"/></g></svg>