<svg id="blue" xmlns="http://www.w3.org/2000/svg" viewBox="0 0 700 700"><defs><style>.cls-1{fill:#2facea;}</style></defs><title>rotator</title><g id="foreground"><g id="foreground_copy" data-name="foreground copy"><path class="cls-1" d="M147.06,312.25c.14-.66.29-1.31.43-2h0l-4.9-1c-.14.66-.3,1.31-.43,2a213.11,213.11,0,0,0-4,30.61l5-.28A209.22,209.22,0,0,1,147.06,312.25Z"/><path class="cls-1" d="M291.76,150l1.09,4.92c2.2-.64,4.41-1.25,6.63-1.81l-.82-5Q295.2,149,291.76,150Z"/><path class="cls-1" d="M142.78,308.29l4.93,1c.25-1.14.51-2.28.78-3.41h0l-4.95-.87C143.27,306.1,143,307.19,142.78,308.29Z"/><path class="cls-1" d="M552.71,395.74a207.49,207.49,0,0,1-9.23,31.81l4.67,1.87a214.7,214.7,0,0,0,9.49-32.67,211.62,211.62,0,0,0,1-80.5l-4.91,1.11A206.23,206.23,0,0,1,552.71,395.74Z"/><path class="cls-1" d="M402.44,148.51l-1,4.92c1,.25,1.95.52,2.92.78l1-4.93Z"/><path class="cls-1" d="M153.58,420l-4.81,1.47a212.57,212.57,0,0,0,13.91,32.23l4.33-2.54A208.2,208.2,0,0,1,153.58,420Z"/><path class="cls-1" d="M401.39,554.6c-1.56.4-3.13.78-4.69,1.15l.59,5c1.61-.37,3.21-.75,4.8-1.16Z"/><path class="cls-1" d="M500.41,211.77A208.63,208.63,0,0,1,532.3,256l4.4-2.44a213,213,0,0,0-32.43-45Z"/><path class="cls-1" d="M303.94,152a206.26,206.26,0,0,1,87.69-.86c3,.61,5.91,1.29,8.82,2l1-4.92c-2.92-.73-5.85-1.42-8.82-2a211.45,211.45,0,0,0-89.42.79Z"/><path class="cls-1" d="M499.21,497.85l-.19-.15h0a208.14,208.14,0,0,1-93.78,55.88l.89,5a213.11,213.11,0,0,0,96.45-57.3Z"/><path class="cls-1" d="M542.17,431q-3.63,9.1-8.06,17.69l4.51,2.24q4.53-8.83,8.26-18.18Z"/><path class="cls-1" d="M362.73,560.71h0l-.32,5c4.29-.25,8.57-.63,12.81-1.14l-.32-5C370.89,560.09,366.82,560.45,362.73,560.71Z"/><path class="cls-1" d="M169,454.86l-4.36,2.51q1.48,2.64,3,5.24l4.36-2.51C171,458.36,170,456.62,169,454.86Z"/></g></g></svg>