<?xml version="1.0" encoding="utf-8"?>
<!-- Generator: Adobe Illustrator 23.1.0, SVG Export Plug-In . SVG Version: 6.00 Build 0)  -->
<svg version="1.1" xmlns="http://www.w3.org/2000/svg" xmlns:xlink="http://www.w3.org/1999/xlink" x="0px" y="0px"
	 viewBox="0 0 700 700" style="enable-background:new 0 0 700 700;" xml:space="preserve">
<style type="text/css">
	.st0{display:none;}
	.st1{display:inline;}
	.st2{display:inline;opacity:0.25;}
	.st3{opacity:0.7;}
	.st4{opacity:0.26;}
	.st5{fill:#FFFFFF;}
	.st6{display:inline;opacity:0.31;}
	.st7{fill:#2FACEA;}
	.st8{display:inline;opacity:0.54;}
	.st9{opacity:0.35;}
	.st10{fill:#E83131;}
	.st11{display:inline;opacity:0.48;}
	.st12{opacity:0.61;}
	.st13{fill:#F9AD15;}
	.st14{display:inline;opacity:0.26;}
	.st15{fill:#2ADD72;}
	.st16{display:inline;opacity:0.7;}
	.st17{fill:url(#SVGID_1_);}
	.st18{fill:url(#SVGID_2_);}
	.st19{fill:#F8F7F7;}
</style>
<g id="background" class="st0">
	<rect x="1" y="1" class="st1" width="700" height="700"/>
</g>
<g id="outter_ring" class="st0">
	<g id="white_copy_2" class="st2">
		<g id="background_copy_3" class="st3">
			<g class="st4">
				<path class="st5" d="M77.3,475.85l-6.18,4.06c1.18,2.47,2.39,4.92,3.64,7.36l6.34-3.68C79.79,481.03,78.53,478.45,77.3,475.85z"
					/>
				<path class="st5" d="M616.95,500.89l-6.57-3.26c-0.72,1.25-1.44,2.5-2.18,3.74l6.19,3.9
					C615.26,503.83,616.11,502.36,616.95,500.89z"/>
				<path class="st5" d="M606.81,517.33l-6.42-3.58c-2.71,4.07-5.51,8.07-8.4,11.97l5.25,5.19
					C600.54,526.5,603.73,521.97,606.81,517.33z"/>
			</g>
		</g>
		<g id="foreground_copy_7">
			<g class="st4">
				<path class="st5" d="M629.11,459.31c-0.37,0.91-0.76,1.8-1.13,2.71l0.04,0.01l6.75,2.73c0.37-0.9,0.76-1.79,1.13-2.7
					c5.7-14.12,10.27-28.41,13.78-42.78l-7.31-0.93C638.96,432.1,634.57,445.79,629.11,459.31z"/>
				<path class="st5" d="M634.2,466.1l-6.79-2.74c-0.66,1.57-1.33,3.14-2.01,4.69l0.01,0.01l0,0l6.86,2.55
					C632.93,469.11,633.56,467.61,634.2,466.1z"/>
				<path class="st5" d="M648,303.31l7.27-0.84c-2.45-16.94-6.29-33.6-11.46-49.82l-6.88,2.5
					C641.92,270.83,645.63,286.94,648,303.31z"/>
				<path class="st5" d="M96.71,510.6c-14.47-22.31-25.92-46.44-34.08-71.69l-6.94,2.33c8.31,25.69,19.95,50.24,34.64,72.97
					L96.71,510.6z"/>
				<path class="st5" d="M94.35,185.75c5.05-8.05,10.46-15.79,16.18-23.23l-5.86-4.38c-5.87,7.64-11.42,15.59-16.6,23.87
					L94.35,185.75z"/>
				<path class="st5" d="M635.01,249.31l6.89-2.46c-0.95-2.78-1.94-5.54-2.97-8.29l-6.9,2.46
					C633.07,243.76,634.06,246.53,635.01,249.31z"/>
			</g>
		</g>
	</g>
	<g id="white_copy" class="st2">
		<g id="background_copy_2" class="st3">
			<g class="st4">
				<path class="st5" d="M80.67,416.98c-6.2-23.66-9.19-47.9-9.06-72.06l-6.75-0.71c-0.2,25.15,2.92,50.39,9.42,75.01L80.67,416.98z
					"/>
				<path class="st5" d="M627.08,363.6l6.8-0.51c0.15-2.52,0.27-5.04,0.35-7.56l-6.76,0.13
					C627.39,358.31,627.25,360.96,627.08,363.6z"/>
				<path class="st5" d="M619.92,281.05c4.4,18.27,6.9,36.85,7.55,55.45l6.75-0.09c-0.64-18.66-3.09-37.3-7.41-55.64L619.92,281.05z
					"/>
				<path class="st5" d="M203.05,102.16l3.84,5.56c1.14-0.68,2.28-1.37,3.43-2.04l-3.25-5.92
					C205.73,100.55,204.39,101.35,203.05,102.16z"/>
				<path class="st5" d="M218.58,93.43l3.58,5.75c4.01-2.07,8.05-4.04,12.12-5.9l-1.91-6.54C227.74,88.85,223.14,91.07,218.58,93.43
					z"/>
				<path class="st5" d="M585.64,505.75l-6.11-3.03c-3.36,4.94-6.88,9.79-10.59,14.54l5.25,4.24
					C578.21,516.37,582.01,511.11,585.64,505.75z"/>
			</g>
		</g>
		<g id="foreground_copy_6">
			<g class="st4">
				<path class="st5" d="M579.16,177.81l-5.25,4.25c0.8,1.09,1.58,2.19,2.36,3.29l5.25-4.25C580.75,180,579.96,178.9,579.16,177.81z
					"/>
				<path class="st5" d="M626.96,326.9c1.69,24.46,0.15,49.04-4.56,73.05l6.64,1.22c4.78-24.43,6.37-49.44,4.69-74.33L626.96,326.9z
					"/>
			</g>
		</g>
	</g>
</g>
<g id="blue" class="st0">
	<g id="background_1_" class="st6">
		<g id="foreground_copy_2_1_">
			<g>
				<path class="st7" d="M228.41,521.76c-14.75-10.69-27.92-23.24-39.26-37.21l-4.22,2.78c11.77,14.58,25.49,27.64,40.86,38.74
					L228.41,521.76z"/>
				<path class="st7" d="M517.82,232.85l3.67-3.51c-1.1-1.52-2.22-3.03-3.37-4.52l-3.83,3.27
					C515.5,229.66,516.67,231.25,517.82,232.85z"/>
				<path class="st7" d="M211.86,192.95l2.91,4.13c2.05-1.76,4.13-3.48,6.24-5.16l-2.77-4.21
					C216.08,189.41,213.95,191.16,211.86,192.95z"/>
				<path class="st7" d="M508.84,486.77l2.88,4.38c3.98-4.69,7.77-9.58,11.35-14.63l-3.96-3.11
					C515.86,478.01,512.43,482.47,508.84,486.77z"/>
				<path class="st7" d="M474.69,188.7c11.16,8.44,21.39,17.96,30.54,28.36l3.84-3.24c-9.18-10.44-19.4-20.02-30.56-28.54
					L474.69,188.7z"/>
				<path class="st7" d="M150.13,282.65l4.84,1.39c0.33-0.93,0.67-1.87,1.01-2.79l-4.67-1.87
					C150.91,280.46,150.52,281.55,150.13,282.65z"/>
				<path class="st7" d="M154.95,270.29l4.78,1.62c1.33-3.09,2.72-6.13,4.19-9.13l-4.19-2.86
					C158.06,263.32,156.46,266.78,154.95,270.29z"/>
				<path class="st7" d="M557,354.51c-0.05,13.6-1.44,27.39-4.29,41.23c-3.89,18.91-10.25,36.67-18.67,53.04l4.14,2.96
					c8.79-16.95,15.41-35.37,19.45-54.99c2.95-14.32,4.37-28.59,4.4-42.66L557,354.51z"/>
				<path class="st7" d="M228.39,186.31c24.02-17.4,51.72-29.64,81.25-35.5l-0.82-4.96c-30.23,5.98-58.59,18.48-83.2,36.26
					L228.39,186.31z"/>
				<path class="st7" d="M148.89,403.99c-7.27-29.15-8.29-60.35-1.83-91.74c0.14-0.66,0.29-1.31,0.43-1.96l-4.92-1.01
					c-0.14,0.66-0.29,1.31-0.43,1.96c-6.6,32.05-5.58,63.89,1.8,93.67L148.89,403.99z"/>
				<path class="st7" d="M561.12,334.28l-4.95,1.14c0.4,4.43,0.67,8.89,0.77,13.38l5.03-0.04
					C561.86,343.9,561.56,339.08,561.12,334.28z"/>
				<path class="st7" d="M282.58,549.85c-15.09-5.16-29.27-11.97-42.39-20.16l-2.26,4.52c13.37,8.31,27.82,15.21,43.19,20.46
					L282.58,549.85z"/>
				<path class="st7" d="M316.24,149.63c4.01-0.66,8.05-1.21,12.12-1.63l-0.56-5c-4.24,0.44-8.44,1.02-12.62,1.71L316.24,149.63z"/>
				<path class="st7" d="M287.42,551.44c-0.94-0.29-1.86-0.61-2.79-0.91l-1.55,4.78c0.98,0.32,1.95,0.65,2.94,0.96L287.42,551.44z"
					/>
			</g>
		</g>
	</g>
	<g id="foreground_2_" class="st1">
		<g id="foreground_copy">
			<g>
				<path class="st7" d="M147.06,312.25c0.14-0.66,0.29-1.31,0.43-1.97l-0.03,0l-4.9-1.01c-0.14,0.66-0.29,1.31-0.43,1.96
					c-2.11,10.24-3.43,20.46-4.02,30.6l5.05-0.27C143.77,331.85,145.04,322.06,147.06,312.25z"/>
				<path class="st7" d="M291.76,149.98l1.09,4.92c2.2-0.63,4.41-1.24,6.63-1.8l-0.82-4.97
					C296.35,148.7,294.05,149.32,291.76,149.98z"/>
				<path class="st7" d="M142.78,308.29l4.92,1.01c0.25-1.14,0.51-2.28,0.78-3.42l-0.01,0l0,0l-4.95-0.87
					C143.27,306.1,143.03,307.19,142.78,308.29z"/>
				<path class="st7" d="M552.71,395.74c-2.27,11.01-5.38,21.63-9.24,31.82l4.67,1.86c3.96-10.46,7.16-21.36,9.49-32.67
					c5.63-27.37,5.71-54.59,1.01-80.5l-4.91,1.1C558.29,342.59,558.2,369.09,552.71,395.74z"/>
				<path class="st7" d="M402.44,148.51l-1.01,4.93c0.98,0.25,1.95,0.52,2.92,0.78l1.02-4.93
					C404.39,149.02,403.42,148.76,402.44,148.51z"/>
				<path class="st7" d="M153.58,419.98l-4.81,1.47c3.75,11.14,8.4,21.92,13.9,32.24l4.34-2.54
					C161.71,441.17,157.21,430.74,153.58,419.98z"/>
				<path class="st7" d="M401.39,554.6c-1.56,0.4-3.12,0.78-4.69,1.15l0.6,5.02c1.61-0.37,3.2-0.75,4.8-1.16L401.39,554.6z"/>
				<path class="st7" d="M500.41,211.77c12.53,13.29,23.25,28.17,31.89,44.22l4.4-2.43c-8.79-16.33-19.69-31.48-32.42-45.01
					L500.41,211.77z"/>
				<path class="st7" d="M303.94,152.03c27.98-6.38,57.75-7.03,87.7-0.87c2.97,0.61,5.91,1.3,8.82,2.03l1.01-4.93
					c-2.91-0.73-5.85-1.41-8.82-2.02c-30.53-6.28-60.87-5.66-89.41,0.79L303.94,152.03z"/>
				<path class="st7" d="M499.21,497.85l-0.2-0.15l-0.01,0c-25.63,26.55-58.05,45.94-93.77,55.88l0.89,4.97
					c36.74-10.13,70.09-30.03,96.44-57.3L499.21,497.85z"/>
				<path class="st7" d="M542.17,430.95c-2.42,6.06-5.12,11.96-8.06,17.69l4.5,2.23c3.02-5.89,5.79-11.95,8.27-18.18L542.17,430.95z
					"/>
				<path class="st7" d="M362.73,560.71l0.03,0.01l-0.32,5.04c4.3-0.25,8.57-0.63,12.81-1.14l-0.32-5.02
					C370.89,560.09,366.82,560.45,362.73,560.71z"/>
				<path class="st7" d="M169.04,454.86l-4.35,2.51c0.98,1.76,2,3.51,3.03,5.24l4.35-2.51
					C171.03,458.36,170.02,456.62,169.04,454.86z"/>
			</g>
		</g>
	</g>
</g>
<g id="red" class="st0">
	<g id="background_3_" class="st8">
		<g class="st9">
			<path class="st10" d="M355.61,524.63c-15.19,0.47-30.29-1.09-44.91-4.53l-1.37,3.99c15.21,3.62,30.93,5.24,46.75,4.72
				L355.61,524.63z"/>
			<path class="st10" d="M399.26,186.18l0.63-4.19c-1.51-0.44-3.02-0.86-4.53-1.27l-0.86,4.11
				C396.09,185.25,397.68,185.71,399.26,186.18z"/>
			<path class="st10" d="M176.88,315.98l4.03,1.24c0.45-2.21,0.95-4.41,1.49-6.59l-3.98-1.37
				C177.86,311.49,177.35,313.73,176.88,315.98z"/>
			<path class="st10" d="M522.91,358.41l4.14,1.42c0.24-5.13,0.24-10.29,0.03-15.45l-4.2-0.04
				C523.08,349.04,523.09,353.74,522.91,358.41z"/>
			<path class="st10" d="M348.25,179.04c11.68-0.12,23.28,0.94,34.64,3.14l0.88-4.1c-11.39-2.21-23.03-3.32-34.74-3.25
				L348.25,179.04z"/>
			<path class="st10" d="M181.9,406.71l3.91-1.55c-0.26-0.79-0.51-1.57-0.76-2.36l-4.04,1.15
				C181.3,404.86,181.6,405.78,181.9,406.71z"/>
			<path class="st10" d="M178.78,396.08l3.98-1.37c-0.7-2.72-1.33-5.44-1.89-8.17l-4.22,0.25C177.27,389.9,177.98,393,178.78,396.08
				z"/>
			<path class="st10" d="M487.21,246.51c6.91,9,13.03,18.82,18.21,29.41c7.08,14.47,11.94,29.44,14.74,44.54l4.24-0.16
				c-2.85-15.67-7.87-31.22-15.22-46.23c-5.36-10.96-11.7-21.11-18.87-30.41L487.21,246.51z"/>
			<path class="st10" d="M184.41,303.16c6.98-23.75,19.02-45.96,35.53-64.91l-3.07-2.86c-16.91,19.38-29.25,42.1-36.42,66.4
				L184.41,303.16z"/>
			<path class="st10" d="M243.01,487.45c-19.68-15.54-36.27-35.61-48.03-59.64c-0.25-0.5-0.48-1.01-0.72-1.52l-3.77,1.84
				c0.24,0.51,0.47,1.01,0.72,1.52c12,24.53,28.92,45.03,48.99,60.92L243.01,487.45z"/>
			<path class="st10" d="M479.61,231.05l-2.68,3.28c2.52,2.72,4.98,5.53,7.34,8.44l3.3-2.59
				C485.01,237.02,482.35,233.99,479.61,231.05z"/>
			<path class="st10" d="M405.72,515.53c-12.6,4.29-25.44,7.03-38.28,8.32l0.81,4.14c13.07-1.34,26.14-4.16,38.96-8.54
				L405.72,515.53z"/>
			<path class="st10" d="M223.69,234.11c2.31-2.48,4.7-4.91,7.17-7.26l-2.92-3.01c-2.57,2.45-5.06,4.98-7.46,7.57L223.69,234.11z"/>
			<path class="st10" d="M409.72,514.11c-0.77,0.28-1.54,0.55-2.31,0.82l1.42,3.95c0.81-0.29,1.62-0.57,2.43-0.86L409.72,514.11z"/>
		</g>
	</g>
	<g id="foreground" class="st1">
		<g>
			<path class="st10" d="M194.98,427.81c-0.25-0.51-0.48-1.01-0.72-1.52l-0.02,0.01l-3.75,1.83c0.24,0.51,0.47,1.01,0.72,1.52
				c3.84,7.84,8.18,15.26,12.96,22.26l3.2-2.76C202.81,442.44,198.66,435.32,194.98,427.81z"/>
			<path class="st10" d="M207.71,246.83l3.23,2.69c1.13-1.54,2.28-3.07,3.46-4.57l-3.08-2.86
				C210.08,243.64,208.88,245.23,207.71,246.83z"/>
			<path class="st10" d="M190.14,427.38l3.77-1.84c-0.42-0.88-0.83-1.77-1.23-2.65l-0.01,0l0,0l-3.71,1.95
				C189.34,425.69,189.74,426.54,190.14,427.38z"/>
			<path class="st10" d="M505.42,275.91c4.12,8.43,7.49,17.03,10.14,25.72l4.03-1.15c-2.72-8.93-6.17-17.76-10.41-26.41
				c-10.25-20.95-24.09-38.95-40.41-53.67l-2.68,3.23C481.98,237.98,495.44,255.52,505.42,275.91z"/>
			<path class="st10" d="M280.03,189.37l1.84,3.77c0.77-0.33,1.55-0.65,2.32-0.97l-1.85-3.77
				C281.58,188.72,280.81,189.04,280.03,189.37z"/>
			<path class="st10" d="M254.27,495.62l-2.43,3.42c8.16,5.44,16.74,10.19,25.63,14.19l1.57-3.89
				C270.45,505.46,262.16,500.87,254.27,495.62z"/>
			<path class="st10" d="M486.58,458.03c-0.82,1.06-1.66,2.11-2.51,3.15l2.96,3.01c0.87-1.06,1.73-2.13,2.58-3.21L486.58,458.03z"/>
			<path class="st10" d="M377,181.14c15.06,2.38,29.73,6.73,43.62,12.92l1.66-3.85c-14.14-6.3-29.06-10.73-44.38-13.17L377,181.14z"
				/>
			<path class="st10" d="M216.79,241.97c15.22-18.5,34.54-34.11,57.46-45.33c2.27-1.11,4.56-2.16,6.86-3.16l-1.84-3.77
				c-2.3,1.01-4.58,2.05-6.86,3.16c-23.36,11.43-43.08,27.33-58.63,46.15L216.79,241.97z"/>
			<path class="st10" d="M522.21,370.64l-0.21,0l-0.01,0c-3.38,30.61-14.88,59.96-33.4,84.75l3.12,2.83
				c19.09-25.44,30.95-55.6,34.43-87.05L522.21,370.64z"/>
			<path class="st10" d="M516.43,304.55c1.5,5.24,2.73,10.51,3.71,15.79l4.11-0.82c-1.01-5.43-2.28-10.84-3.82-16.22L516.43,304.55z
				"/>
			<path class="st10" d="M464.18,481.79l0.02,0l2.36,3.49c2.71-2.36,5.34-4.79,7.88-7.29l-2.77-3.15
				C469.25,477.22,466.75,479.54,464.18,481.79z"/>
			<path class="st10" d="M282.27,510.76l-1.59,3.88c1.55,0.66,3.11,1.3,4.67,1.91l1.59-3.88
				C285.38,512.05,283.82,511.42,282.27,510.76z"/>
		</g>
	</g>
</g>
<g id="yellow" class="st0">
	<g id="background_2_" class="st11">
		<g id="official">
			<g>
				<g class="st12">
					<path class="st13" d="M339.81,518.77l1.52-13.42c-9.45-0.52-18.69-1.89-27.64-4.04l-4.97,12.68
						C318.77,516.51,329.16,518.13,339.81,518.77z"/>
				</g>
				<g class="st12">
					<path class="st13" d="M496.19,264.87c-6.32-10.82-13.81-20.87-22.28-29.97l-9.29,9.81c7.55,8.2,14.23,17.23,19.89,26.93
						L496.19,264.87z"/>
				</g>
				<g class="st12">
					<path class="st13" d="M291.42,205.86c16.83-6.85,35.15-10.86,54.38-11.39c1.9-0.05,3.8-0.06,5.68-0.04l0-0.01l0.06-13.48
						c-2.03-0.02-4.07-0.01-6.11,0.05c-21.55,0.59-42.05,5.2-60.8,13.08L291.42,205.86z"/>
				</g>
				<g class="st12">
					<path class="st13" d="M215.78,428.6l-11.31,7.37c5.01,8.46,10.72,16.45,17.08,23.88l9.48-9.67
						C225.36,443.45,220.26,436.23,215.78,428.6z"/>
				</g>
				<g class="st12">
					<path class="st13" d="M371.91,504.06c-3.12,0.44-6.27,0.79-9.45,1.04l0.14,13.51c3.18-0.23,6.32-0.57,9.45-0.98L371.91,504.06z
						"/>
				</g>
				<g class="st12">
					<path class="st13" d="M455.31,464.58l7.95,11.01c35.47-32,57.25-78.74,55.83-130.23c-0.02-0.69-0.05-1.38-0.08-2.07
						l-13.49,0.14c0.03,0.77,0.07,1.53,0.09,2.3C506.9,392.59,487.31,435.17,455.31,464.58z"/>
				</g>
				<g class="st12">
					<path class="st13" d="M518.88,340.46c-0.05-0.9-0.1-1.8-0.17-2.7l-13.41,1.6c0.05,0.67,0.08,1.35,0.12,2.03L518.88,340.46z"/>
				</g>
				<g class="st12">
					<path class="st13" d="M451.11,468.32c-1.2,1.03-2.42,2.04-3.65,3.03l7.16,11.55c1.3-1.02,2.58-2.07,3.85-3.13L451.11,468.32z"
						/>
				</g>
				<g class="st12">
					<path class="st13" d="M264.79,496c0.76,0.44,1.52,0.89,2.28,1.32l7.31-11.37c-0.9-0.5-1.79-1.02-2.68-1.54L264.79,496z"/>
				</g>
				<g class="st12">
					<path class="st13" d="M268.29,482.37c-13.03-8.07-24.8-18.01-34.91-29.46l-9.46,9.65c10.51,11.76,22.63,22.04,36.01,30.48
						L268.29,482.37z"/>
				</g>
				<g class="st12">
					<path class="st13" d="M195.76,330.09c0.18-1.43,0.38-2.85,0.6-4.26l-13.32-2.14c-0.23,1.46-0.43,2.92-0.62,4.39L195.76,330.09z
						"/>
				</g>
				<g class="st12">
					<path class="st13" d="M196.1,372.29L182.72,374c0.14,0.97,0.26,1.94,0.42,2.9l13.37-1.84
						C196.36,374.14,196.24,373.22,196.1,372.29z"/>
				</g>
				<g class="st12">
					<path class="st13" d="M195.93,371.08c-0.75-5.51-1.23-11.11-1.38-16.8c-0.2-7.36,0.12-14.61,0.91-21.72l-13.33-2.13
						c-0.92,7.93-1.29,16.01-1.07,24.23c0.17,6.02,0.66,11.95,1.43,17.79L195.93,371.08z"/>
				</g>
				<g class="st12">
					<path class="st13" d="M227.19,236.59l10.23,6.13c12.26-12.87,26.7-23.66,42.77-31.75l-4.01-12.21l-0.39-0.68
						c-18.95,9.28-35.88,22-50,37.31L227.19,236.59z"/>
				</g>
				<g class="st12">
					<path class="st13" d="M427.5,215.03c7.37,4.24,14.38,9.06,20.93,14.41l9.29-9.82c-7.43-6.14-15.39-11.64-23.79-16.45
						L427.5,215.03z"/>
				</g>
				<g class="st12">
					<path class="st13" d="M386.52,198.72L386.52,198.72l3.79-12.97c-10.88-2.66-22.16-4.25-33.72-4.69l-1.07,12.3l0.01,1.15
						C366.16,194.88,376.52,196.32,386.52,198.72L386.52,198.72z"/>
				</g>
			</g>
		</g>
	</g>
	<g id="foreground_1_" class="st1">
		<g id="image">
			<g>
				<g>
					<path class="st13" d="M340.01,194.74c5.7-0.36,11.34-0.4,16.93-0.15l0.99-13.46c-6.42-0.3-12.92-0.25-19.47,0.2L340.01,194.74z
						"/>
				</g>
				<g>
					<path class="st13" d="M480.95,266.34l11.45-7.14c-1.05-1.64-2.12-3.26-3.22-4.86l-10.81,8.1
						C479.25,263.73,480.11,265.02,480.95,266.34z"/>
				</g>
				<g>
					<path class="st13" d="M500.1,272.59l-11.92,6.32c6.76,13.15,11.72,27.46,14.54,42.63l13.43-1.55
						C513.11,303.1,507.62,287.19,500.1,272.59z"/>
				</g>
				<g>
					<path class="st13" d="M504.18,369.29c-0.52,4.19-1.21,8.34-2.06,12.44l13.14,3.11c0.91-4.34,1.65-8.73,2.22-13.17
						L504.18,369.29z"/>
				</g>
				<g>
					<path class="st13" d="M504.66,335.49c1,10.57,0.91,21-0.18,31.18l13.34,2.2c1.19-10.68,1.36-21.62,0.44-32.7L504.66,335.49z"/>
				</g>
				<g>
					<path class="st13" d="M284.83,491.43l-5.46,12.33c0.83,0.38,1.67,0.77,2.51,1.14l5.5-12.32
						C286.52,492.21,285.68,491.82,284.83,491.43z"/>
				</g>
				<g>
					<g>
						<path class="st13" d="M231.59,229.12c-3.35,3.28-6.56,6.68-9.62,10.22l10,9.06c2.88-3.34,5.91-6.56,9.07-9.65L231.59,229.12z"
							/>
					</g>
					<g>
						<path class="st13" d="M330.4,182.06c-37.25,4.29-70.26,20.4-95.75,44.13l9.19,9.87c23.45-21.83,53.83-36.65,88.1-40.6
							c0.6-0.07,1.19-0.12,1.79-0.18l-1.54-13.4C331.59,181.94,331,181.99,330.4,182.06z"/>
					</g>
				</g>
				<g>
					<path class="st13" d="M214.18,426.42l-11.41,7.21c16.51,29,41.24,52.36,70.68,67.29l5.74-12.22
						C252.07,474.87,229.31,453.24,214.18,426.42z"/>
				</g>
				<g>
					<path class="st13" d="M359.95,505.28c-12.64,0.84-25.05,0.12-37.05-1.98l-2.95,13.18c13.07,2.34,26.6,3.16,40.38,2.29
						L359.95,505.28z"/>
				</g>
				<g>
					<path class="st13" d="M364.66,504.9l0.96,13.45c0.97-0.09,1.95-0.19,2.92-0.3l-1.11-13.45
						C366.5,504.72,365.58,504.82,364.66,504.9z"/>
				</g>
				<g>
					<path class="st13" d="M384.56,515.48c6.09-1.27,12.05-2.85,17.85-4.74l-5.16-12.52c-5.03,1.61-10.18,2.97-15.45,4.07
						L384.56,515.48z"/>
				</g>
				<g>
					<path class="st13" d="M374.85,182.81c-4.71-0.7-9.46-1.24-14.27-1.54l-0.99,13.46c4.62,0.29,9.18,0.8,13.7,1.49L374.85,182.81z
						"/>
				</g>
			</g>
		</g>
	</g>
</g>
<g id="green" class="st0">
	<g id="background_4_" class="st14">
		<g id="foreground_copy_4_1_">
		</g>
		<g>
			<path class="st15" d="M375.7,205.38L375.7,205.38L375.7,205.38c10.39,1.87,20.34,4.81,29.75,8.67l2.61-6.78
				c-9.7-3.97-19.93-6.99-30.62-8.95L375.7,205.38z"/>
			<path class="st15" d="M219.52,281.93c6.74-12.93,15.32-24.64,25.34-34.85l-5.86-4.41c-10.25,10.57-19.03,22.65-25.96,35.96
				L219.52,281.93z"/>
			<path class="st15" d="M418.6,212.05c-1.53-0.76-3.07-1.51-4.62-2.22l-3.3,6.48c1.48,0.68,2.95,1.38,4.4,2.11L418.6,212.05z"/>
			<path class="st15" d="M482.03,428.49l-6.13-3.91c-0.27,0.46-0.55,0.93-0.83,1.39l6.15,3.87
				C481.5,429.39,481.76,428.94,482.03,428.49z"/>
			<path class="st15" d="M498.95,311.92l-6.82,2.71c0.32,1.3,0.62,2.61,0.91,3.92l6.82-2.81
				C499.57,314.46,499.27,313.18,498.95,311.92z"/>
			<path class="st15" d="M218.59,283.75l-6.56-3.13c-0.93,1.85-1.83,3.71-2.68,5.6l6.56,3.12
				C216.77,287.45,217.66,285.59,218.59,283.75z"/>
			<path class="st15" d="M438.54,233.01c26.03,19.85,44.9,48.05,53.18,79.96l6.81-2.64c-8.82-33.24-28.6-62.59-55.81-83.26
				L438.54,233.01z"/>
			<path class="st15" d="M488.37,397.63l6.65,2.97c0.76-2.18,1.47-4.39,2.14-6.62l-6.77-2.71
				C489.76,393.42,489.09,395.54,488.37,397.63z"/>
			<path class="st15" d="M357.16,496.32c-3.73,0.19-7.49,0.23-11.28,0.13l-0.05,7.27c4.11,0.11,8.19,0.05,12.24-0.17L357.16,496.32z
				"/>
			<path class="st15" d="M439.85,224.94c-0.68-0.49-1.36-0.97-2.05-1.45l-4.1,6c0.66,0.46,1.32,0.93,1.97,1.4L439.85,224.94z"/>
			<path class="st15" d="M380.73,493.19c-1.07,0.23-2.15,0.45-3.23,0.66l1.03,7.2c1.18-0.23,2.37-0.47,3.54-0.72L380.73,493.19z"/>
			<path class="st15" d="M474.11,427.52c-20.15,32.23-52.26,55.54-89.2,64.7l1.4,7.14c38.99-9.57,72.87-34.15,94.08-68.16
				L474.11,427.52z"/>
			<path class="st15" d="M319.95,493.45c-1.06-0.22-2.12-0.44-3.17-0.68l-1.37,7.14c1.15,0.26,2.3,0.51,3.45,0.75L319.95,493.45z"/>
			<path class="st15" d="M253.33,460.46c-0.57-0.49-1.12-1-1.68-1.5l-4.38,5.83c0.58,0.51,1.16,1.03,1.74,1.53L253.33,460.46z"/>
			<path class="st15" d="M212.3,401.4c-0.74-1.97-1.44-3.95-2.1-5.96l-6.91,2.24c0.67,2.04,1.39,4.07,2.14,6.08L212.3,401.4z"/>
			<path class="st15" d="M313.36,491.94c-19.8-5.03-37.76-13.98-53.19-25.87l-4.06,6.04c16.19,12.4,35.02,21.72,55.76,26.94
				L313.36,491.94z"/>
		</g>
	</g>
	<g id="foreground_3_" class="st1">
		<g id="foreground_copy_3">
			<g>
				<path class="st15" d="M312.69,207.75l-2.1-6.96c-0.58,0.15-1.16,0.31-1.75,0.47l2.06,6.97
					C311.5,208.07,312.09,207.9,312.69,207.75z"/>
				<path class="st15" d="M300,487.86L300,487.86L300,487.86c-2.03-0.74-4.04-1.51-6.02-2.32l-2.67,6.76
					c1.97,0.81,3.97,1.58,5.99,2.3L300,487.86z"/>
				<path class="st15" d="M312.79,491.79c-0.57-0.15-1.13-0.3-1.7-0.46l-2.02,6.98c0.61,0.16,1.21,0.33,1.82,0.49L312.79,491.79z"/>
				<path class="st15" d="M396.4,203.04c-1.63-0.52-3.28-1.02-4.94-1.48l-2.15,6.94c1.65,0.46,3.28,0.95,4.9,1.47L396.4,203.04z"/>
				<path class="st15" d="M251.79,230.89l3.91,6.2c0.78-0.65,1.58-1.3,2.37-1.94l-4.05-6.06
					C253.28,229.68,252.53,230.28,251.79,230.89z"/>
				<path class="st15" d="M203.14,358l-7.22,0.93c0.13,2.28,0.31,4.54,0.54,6.8l7.15-1.51v0l0.01,0
					C203.41,362.16,203.25,360.08,203.14,358z"/>
				<path class="st15" d="M246.1,453.71c-0.72-0.72-1.44-1.45-2.15-2.19l-4.76,5.52c0.73,0.75,1.47,1.5,2.21,2.24L246.1,453.71z"/>
				<path class="st15" d="M286.61,482.29c-14.55-6.91-27.67-16.1-38.97-27.05l-4.42,5.83c11.69,11.2,25.21,20.62,40.17,27.74
					L286.61,482.29z"/>
				<path class="st15" d="M501.58,324.53l-7.11,1.53c0.11,0.65,0.21,1.29,0.31,1.94l7.16-1.25
					C501.83,326.01,501.71,325.27,501.58,324.53z"/>
				<path class="st15" d="M502.83,365.48l-7.19-1.08c-0.24,2.4-0.54,4.8-0.9,7.21c-0.29,1.93-0.63,3.83-0.99,5.73l7.19,1.08
					c0.36-1.9,0.69-3.8,0.98-5.73C502.28,370.28,502.58,367.88,502.83,365.48z"/>
				<path class="st15" d="M259.68,233.87c14.7-11.41,31.54-20.02,49.66-25.21l-1.84-7.03c-18.9,5.39-36.49,14.34-51.86,26.19
					L259.68,233.87z"/>
				<path class="st15" d="M382.86,492.72c-17.55,4.08-36.15,4.98-55.05,2.14c-4.63-0.7-9.16-1.61-13.61-2.71l-1.67,7.07
					c4.65,1.15,9.38,2.1,14.21,2.83c19.64,2.96,38.98,2.06,57.24-2.12L382.86,492.72z"/>
				<path class="st15" d="M393.66,497.36l-1.7-7.07c-2.02,0.61-4.06,1.18-6.11,1.71l1.37,7.14
					C389.39,498.59,391.53,497.99,393.66,497.36z"/>
				<path class="st15" d="M495.1,330.28c1.14,8.54,1.54,17.27,1.13,26.12l0.22,0.03l7.03,0.41c0.44-9.42,0.01-18.72-1.22-27.81
					L495.1,330.28z"/>
				<path class="st15" d="M458.54,240.89c-16.38-16.41-36.56-29.25-59.42-36.97l-1.97,7.01c21.65,7.38,40.76,19.57,56.29,35.14
					L458.54,240.89z"/>
				<path class="st15" d="M479.98,282.38l6.44-3.35c-1.63-3.15-3.37-6.24-5.21-9.26l-6.2,3.78
					C476.77,276.43,478.42,279.38,479.98,282.38z"/>
				<path class="st15" d="M454.97,247.62c0.55,0.57,1.11,1.14,1.65,1.72l5.21-5.07c-0.61-0.65-1.23-1.29-1.85-1.92L454.97,247.62z"
					/>
			</g>
		</g>
	</g>
</g>
<g id="white" class="st0">
	<g id="background_5_" class="st16">
		<g class="st9">
			<path class="st5" d="M222.43,298.19c4.52-11.27,10.49-21.83,17.68-31.43l-2.48-2.28c-7.51,9.98-13.72,20.97-18.4,32.71
				L222.43,298.19z"/>
			<path class="st5" d="M456.24,438.35l2.86,1.8c0.8-0.96,1.6-1.93,2.38-2.91l-2.74-1.94C457.93,436.33,457.09,437.34,456.24,438.35
				z"/>
			<path class="st5" d="M432.32,234.06l-2.2,2.55c1.47,1.04,2.92,2.1,4.35,3.2l2.27-2.48C435.29,236.21,433.81,235.12,432.32,234.06
				z"/>
			<path class="st5" d="M290.62,473.8l-2.36,2.58c3.68,1.81,7.45,3.47,11.3,4.96l1.37-3.06
				C297.42,476.92,293.98,475.43,290.62,473.8z"/>
			<path class="st5" d="M477.77,403.29c-3.64,8.59-8.13,16.74-13.37,24.36l2.72,1.96c5.26-7.63,9.79-15.8,13.48-24.39L477.77,403.29
				z"/>
			<path class="st5" d="M364.29,208.73l-0.11,3.36c0.66,0.06,1.32,0.13,1.97,0.2l0.45-3.32
				C365.84,208.88,365.06,208.8,364.29,208.73z"/>
			<path class="st5" d="M373.07,209.84l-0.27,3.35c2.21,0.36,4.41,0.77,6.58,1.23l1.17-3.17
				C378.07,210.71,375.58,210.24,373.07,209.84z"/>
			<path class="st5" d="M383.96,483.45c-8.8,2.18-17.94,3.52-27.35,3.93c-12.86,0.56-25.37-0.67-37.32-3.45l-1.24,3.16
				c12.38,2.93,25.37,4.22,38.71,3.64c9.73-0.42,19.2-1.82,28.29-4.09L383.96,483.45z"/>
			<path class="st5" d="M439.29,243.67c15.15,12.7,27.57,28.62,36.16,46.76l3.07-1.34c-8.78-18.57-21.47-34.88-36.96-47.9
				L439.29,243.67z"/>
			<path class="st5" d="M285.65,227.64c17.66-9.44,37.67-15.17,59.01-16.09c0.45-0.02,0.89-0.03,1.34-0.04l-0.14-3.35
				c-0.45,0.02-0.89,0.02-1.34,0.04c-21.79,0.94-42.21,6.78-60.26,16.39L285.65,227.64z"/>
			<path class="st5" d="M397.7,482.82l-1.54-3.01c-2.8,0.98-5.64,1.88-8.52,2.67l0.84,3.24C391.6,484.87,394.67,483.89,397.7,482.82
				z"/>
			<path class="st5" d="M213.07,337.78c0.89-10.6,2.98-20.87,6.15-30.68l-3.29-0.73c-3.2,10-5.31,20.46-6.21,31.25L213.07,337.78z"
				/>
			<path class="st5" d="M477.29,294.5c1.08,2.49,2.09,5.01,3.03,7.57l3.14-1.17c-0.97-2.67-2.03-5.29-3.16-7.88L477.29,294.5z"/>
			<path class="st5" d="M212.83,341.16c0.04-0.65,0.09-1.3,0.14-1.95l-3.34-0.23c-0.05,0.68-0.11,1.37-0.15,2.06L212.83,341.16z"/>
		</g>
	</g>
	<g id="foreground_4_">
		<g class="st1">
			<path class="st5" d="M344.66,211.55c0.45-0.02,0.9-0.03,1.34-0.04l0-0.02l-0.14-3.33c-0.45,0.02-0.89,0.02-1.34,0.04
				c-6.96,0.3-13.79,1.11-20.44,2.37l1,3.22C331.45,212.61,337.99,211.84,344.66,211.55z"/>
			<path class="st5" d="M473.08,278.73l-3,1.5c0.77,1.32,1.52,2.65,2.24,4l3.08-1.34C474.65,281.49,473.88,280.11,473.08,278.73z"/>
			<path class="st5" d="M346.52,208.15l0.14,3.35c0.78-0.02,1.56-0.04,2.34-0.05l0-0.01l0,0l-0.24-3.34
				C348.02,208.1,347.27,208.12,346.52,208.15z"/>
			<path class="st5" d="M356.6,487.38c-7.49,0.32-14.86,0.04-22.07-0.8l-0.45,3.32c7.41,0.86,14.97,1.16,22.66,0.83
				c18.61-0.81,36.22-5.18,52.21-12.43l-1.51-2.99C391.87,482.34,374.72,486.59,356.6,487.38z"/>
			<path class="st5" d="M492.02,350.05l-3.35,0.15c0,0.67-0.02,1.34-0.03,2.01l3.35-0.15C492,351.39,492.02,350.72,492.02,350.05z"
				/>
			<path class="st5" d="M276.07,233.28l-1.73-2.87c-6.59,4.23-12.81,9-18.58,14.23l2.35,2.39
				C263.69,241.97,269.7,237.37,276.07,233.28z"/>
			<path class="st5" d="M229.31,415.36c-0.51-0.94-1.01-1.89-1.5-2.85l-3.15,1.2c0.5,0.98,1.01,1.95,1.53,2.91L229.31,415.36z"/>
			<path class="st5" d="M467.04,423.67c-6.55,10.26-14.43,19.61-23.4,27.8l2.29,2.45c9.13-8.34,17.15-17.84,23.83-28.28
				L467.04,423.67z"/>
			<path class="st5" d="M473.73,286.94c8.68,17.05,13.93,36.19,14.81,56.55c0.09,2.02,0.12,4.03,0.12,6.03l3.35-0.15
				c0-2-0.04-4.01-0.12-6.03c-0.9-20.76-6.23-40.27-15.04-57.68L473.73,286.94z"/>
			<path class="st5" d="M281.89,469.38l0.07-0.15l0-0.01c-21.33-12.26-39.14-30.06-51.37-51.54l-3.07,1.38
				c12.52,22.11,30.8,40.43,52.72,53.04L281.89,469.38z"/>
			<path class="st5" d="M332.12,486.28c-4.31-0.58-8.56-1.36-12.75-2.33l-0.71,3.27c4.3,0.99,8.66,1.8,13.09,2.39L332.12,486.28z"/>
			<path class="st5" d="M219.08,391.36l0,0.02l-3.31,0.61c0.86,2.74,1.8,5.44,2.82,8.1l3.2-1.02
				C220.8,396.54,219.9,393.97,219.08,391.36z"/>
			<path class="st5" d="M256.03,248.94l-2.33-2.41c-0.98,0.92-1.94,1.86-2.89,2.81l2.33,2.41
				C254.09,250.8,255.05,249.86,256.03,248.94z"/>
		</g>
	</g>
</g>
<g id="ovos">
	<linearGradient id="SVGID_1_" gradientUnits="userSpaceOnUse" x1="336.8723" y1="328.8503" x2="336.8723" y2="315.6408">
		<stop  offset="0" style="stop-color:#FFFFFF"/>
		<stop  offset="0" style="stop-color:#F8F7F7"/>
		<stop  offset="0.1883" style="stop-color:#F8F7F7"/>
		<stop  offset="0.2045" style="stop-color:#F8F7F7"/>
		<stop  offset="0.6096" style="stop-color:#F8F7F7;stop-opacity:0.9683"/>
		<stop  offset="0.6382" style="stop-color:#F8F7F7;stop-opacity:0.966"/>
		<stop  offset="0.9492" style="stop-color:#FEFDFD;stop-opacity:0.1355"/>
		<stop  offset="1" style="stop-color:#FFFFFF;stop-opacity:0"/>
	</linearGradient>
	<rect x="329.88" y="315.64" class="st17" width="13.99" height="13.21"/>
	<linearGradient id="SVGID_2_" gradientUnits="userSpaceOnUse" x1="363.0796" y1="374.2211" x2="363.0796" y2="384.9427">
		<stop  offset="0" style="stop-color:#FFFFFF"/>
		<stop  offset="0" style="stop-color:#F8F7F7"/>
		<stop  offset="0.2957" style="stop-color:#F8F7F7"/>
		<stop  offset="0.3212" style="stop-color:#F8F7F7"/>
		<stop  offset="0.7825" style="stop-color:#D3D2D2;stop-opacity:0.5718"/>
		<stop  offset="0.8619" style="stop-color:#E0DFDF;stop-opacity:0.3631"/>
		<stop  offset="1" style="stop-color:#FFFFFF;stop-opacity:0"/>
	</linearGradient>
	<rect x="356.04" y="374.22" class="st18" width="14.08" height="10.72"/>
	<rect x="329.88" y="328.26" class="st19" width="13.99" height="73.74"/>
	<rect x="329.88" y="298" class="st19" width="40.24" height="15.84"/>
	<rect x="356.04" y="310.36" class="st19" width="14.08" height="64.42"/>
	<rect x="329.88" y="386.6" class="st19" width="40.24" height="15.4"/>
</g>
</svg>
