<svg id="outter_ring" data-name="outter ring" xmlns="http://www.w3.org/2000/svg" viewBox="0 0 700 700"><defs><style>.cls-1{opacity:0.25;}.cls-2{opacity:0.7;}.cls-3{opacity:0.26;}.cls-4{fill:#fff;}</style></defs><title>rotator</title><g id="white_copy_2" data-name="white copy 2" class="cls-1"><g id="background_copy_3" data-name="background copy 3" class="cls-2"><g class="cls-3"><path class="cls-4" d="M77.3,475.85l-6.18,4.06c1.18,2.47,2.39,4.93,3.64,7.36l6.34-3.68C79.79,481,78.53,478.45,77.3,475.85Z"/><path class="cls-4" d="M617,500.89l-6.57-3.25c-.72,1.25-1.44,2.5-2.18,3.73l6.19,3.91C615.26,503.83,616.11,502.36,617,500.89Z"/><path class="cls-4" d="M606.81,517.33l-6.42-3.57q-4.07,6.11-8.4,12l5.25,5.19Q602.19,524.29,606.81,517.33Z"/></g></g><g id="foreground_copy_7" data-name="foreground copy 7"><g class="cls-3"><path class="cls-4" d="M629.11,459.31c-.37.91-.76,1.8-1.14,2.71h0l6.75,2.73c.38-.9.77-1.79,1.13-2.7a310.59,310.59,0,0,0,13.78-42.78l-7.31-.93A304.23,304.23,0,0,1,629.11,459.31Z"/><path class="cls-4" d="M634.2,466.1l-6.79-2.74c-.66,1.57-1.33,3.14-2,4.69h0l6.86,2.55C632.93,469.11,633.56,467.61,634.2,466.1Z"/><path class="cls-4" d="M648,303.31l7.28-.84a309.25,309.25,0,0,0-11.47-49.82l-6.88,2.51A300.72,300.72,0,0,1,648,303.31Z"/><path class="cls-4" d="M96.71,510.6a303.35,303.35,0,0,1-34.08-71.68l-6.94,2.33a310.56,310.56,0,0,0,34.64,73Z"/><path class="cls-4" d="M94.35,185.75q7.58-12.08,16.17-23.23l-5.86-4.38Q95.86,169.6,88.06,182Z"/><path class="cls-4" d="M635,249.31l6.89-2.46c-.94-2.78-1.93-5.54-3-8.3L632,241Q633.59,245.14,635,249.31Z"/></g></g></g></svg>